<?xml version="1.0" encoding="utf-8"?>
<!-- Generator: Adobe Illustrator 25.0.1, SVG Export Plug-In . SVG Version: 6.00 Build 0)  -->
<svg version="1.1" id="Layer_1" xmlns="http://www.w3.org/2000/svg" xmlns:xlink="http://www.w3.org/1999/xlink" x="0px" y="0px"
	 viewBox="0 0 94.4 104.4" style="enable-background:new 0 0 94.4 104.4;" xml:space="preserve">
<style type="text/css">
	.st0{fill:#361500;}
	.st1{fill:#F8A061;}
	.st2{fill:#D66B64;}
	.st3{fill:#FFB87F;}
	.st4{fill:#FFFFFF;}
	.st5{fill:#4D2700;}
	.st6{fill:#34283B;}
	.st7{fill:#D6774F;}
	.st8{fill:#753512;}
	.st9{fill:#F14543;}
	.st10{fill:#5D5463;}
	.st11{opacity:0.32;fill:#3B6F9C;enable-background:new    ;}
	.st12{fill:#173D63;}
	.st13{opacity:0.32;fill:url(#SVGID_1_);enable-background:new    ;}
</style>
<g>
	<g>
		<path class="st0" d="M55.8,15.4c0,0-18.3-7.4-24.8,4.6s1.3,32.3-1.1,38.7s-5.2,7.7-5.2,7.7s6.6,18.5,24.5,17.4
			c17.8-1,31.6-9.4,25.3-18.9c-6.2-9.4,2.3-32.6,0.9-36.9C73.8,23.7,68.6,9.8,55.8,15.4z"/>
		<path class="st1" d="M57.3,57.8l-7.1,0.5l-7.1-0.5c0,0,2.3,12.6-7.7,14.4c0,0,8.9,16.6,14.8,16.4C56.1,88.8,65,72.2,65,72.2
			C55,70.3,57.3,57.8,57.3,57.8z"/>
		<path class="st2" d="M87.9,99.6c-1.4-8.4-4.1-24-6.2-24.4c-2.8-0.5-18.4-3.4-18.4-3.4L63.2,72c-5.7,8.6-18.6,9.1-25.1,1l-0.9-1.2
			c0,0-15.7,2.9-18.4,3.4c-2,0.4-4.8,16-6.2,24.4C12.6,99.6,87.9,99.6,87.9,99.6z"/>
		<g>
			<path class="st3" d="M50.5,19.3c0,0-19.8-1.4-19.6,8.8c0.3,10.2,3.9,20.3,5.7,25.9S48,65.6,50.5,65.6s12.1-6,13.9-11.6
				s5.5-15.7,5.7-25.9C70.4,17.9,50.5,19.3,50.5,19.3z"/>
			<g>
				<g>
					<path class="st4" d="M46.6,41.9c0,0-1.6-2.3-4.8-2.5s-5,1.6-5,1.6s2.3,3.1,4.9,3.1C45.1,44.1,46.6,41.9,46.6,41.9z"/>
					<path class="st5" d="M44.3,41.5c0,1.3-1.1,2.4-2.4,2.4s-2.4-1.1-2.4-2.4s1.1-2.4,2.4-2.4S44.3,40.2,44.3,41.5z"/>
					<path class="st6" d="M46.6,41.9c0,0-2.3-1.9-4.9-1.9c-2.6,0.1-4.9,0.9-4.9,0.9s0.9-2.4,4.9-2.3C45.7,38.7,46.6,41.9,46.6,41.9z
						"/>
					<path class="st6" d="M43.5,43.6c-2.8,0.5-4.5-0.8-6.7-2.6l0,0c0,0,2.3,3.1,4.9,3.1c2.4,0,3.9-1.2,4.6-1.8
						C45.8,42.6,44,43.5,43.5,43.6z"/>
				</g>
				<g>
					<path class="st4" d="M54.4,41.9c0,0,1.6-2.3,4.8-2.5s5,1.6,5,1.6s-2.3,3.1-4.9,3.1C56,44.1,54.4,41.9,54.4,41.9z"/>
					<path class="st5" d="M56.8,41.5c0,1.3,1.1,2.4,2.4,2.4s2.4-1.1,2.4-2.4s-1.1-2.4-2.4-2.4C57.8,39.1,56.8,40.2,56.8,41.5z"/>
					<path class="st6" d="M54.4,41.9c0,0,2.3-1.9,4.9-1.9c2.6,0.1,4.9,0.9,4.9,0.9s-0.9-2.4-4.9-2.3C55.4,38.7,54.4,41.9,54.4,41.9z
						"/>
					<path class="st6" d="M57.6,43.6c2.8,0.5,4.5-0.8,6.7-2.6l0,0c0,0-2.3,3.1-4.9,3.1c-2.4,0-3.9-1.2-4.6-1.8
						C55.2,42.6,57.1,43.5,57.6,43.6z"/>
				</g>
			</g>
			<g>
				<path class="st7" d="M49.7,50.5c-0.9,0-1.9-0.2-2.4-0.9c-0.2-0.3-0.3-0.9,0.2-1.8c1.3-2.3,2.3-6.1,2.3-6.2
					c0.1-0.3,0.4-0.5,0.6-0.4c0.3,0.1,0.5,0.4,0.4,0.6c0,0.2-1,4.1-2.4,6.5c-0.2,0.3-0.3,0.6-0.2,0.7c0.1,0.2,0.7,0.4,1.7,0.4
					c0.3,0,0.5,0.2,0.6,0.5c0,0.3-0.2,0.5-0.5,0.6C49.9,50.5,49.8,50.5,49.7,50.5z"/>
			</g>
			<g>
				<path class="st8" d="M39.1,33.3c-1.2,0.1-3.5,3.8-3.5,3.8c0.5,0.2,3.3-1.3,4.3-1.2s4.9,0.7,5.6,0.8c0.7,0.1,1.5-1.9,1.6-2.9
					C47.3,32.8,40.3,33.2,39.1,33.3z"/>
				<path class="st8" d="M61.8,33.3c-1.2-0.1-8.3-0.4-8.2,0.6s0.9,3,1.7,2.9S60,36.1,61,36c1.1-0.1,3.9,1.4,4.4,1.2
					C65.4,37.1,63,33.4,61.8,33.3z"/>
			</g>
			<g>
				<path class="st4" d="M44.7,53.4c0,0,5.7,2.5,11.8,0c0,0-2.9,5.4-5.8,5.4C47.7,58.7,44.7,53.4,44.7,53.4z"/>
				<path class="st9" d="M50.7,57.5c-2.3,0-4.7-2.6-6-4.2l0,0c0,0,3,5.4,6,5.4c2.6,0,5.2-4.1,5.8-5.4C55.2,54.9,52.9,57.5,50.7,57.5
					z"/>
				<path class="st9" d="M52.6,53.8c-0.8,0-1.3-0.4-2.1,0c-0.8-0.4-1.3,0-2.1,0s-3.8-0.5-3.8-0.5c3,1.9,5.9,1.9,5.9,1.9
					s2.9,0,5.9-1.9C56.4,53.4,53.4,53.8,52.6,53.8z"/>
			</g>
			<path class="st8" d="M59.9,11.4c0,0-3.5,10.2-0.4,13.8c3.1,3.5,8.8,6.6,7.4,18.1S60.6,70.2,72.3,74c11.7,3.9,16.1-13.8,7.9-16.2
				c0,0,1.1,4.5-3.4,4.1s-4.1-8.8-0.9-17s7.6-18.9-2.2-28.8C65.4,7.5,60.2,10.5,59.9,11.4z"/>
			<path class="st8" d="M62.2,12c0,0-11-10.3-26.5-3.4S20.1,26.9,23,38.7s8.6,20.8,1.7,23.2c-4.2,1.4-4.1-3.8-3-4.7
				c0,0-8.4,0.8-4.5,11.2c3.4,9.1,18.6,6.6,19.8-1.5c2.5-16.9-9.9-31.5,1.8-35.8C50.2,26.7,57.2,31.5,62.2,12z"/>
			<g>
				<path class="st6" d="M50.3,8.3c-29.4,0-25.7,29.2-25.7,29.2h3c0,0-0.4-10.9,4.2-18c1.5-2.3,3.9-4.3,6.5-5.5
					c5.5-2.5,12-2.5,12-2.5s6.5,0,12,2.5c2.6,1.2,5,3.2,6.5,5.5c4.6,7,4.2,18,4.2,18h3C76,37.4,79.6,8.3,50.3,8.3z"/>
				<g>
					<g>
						<path class="st10" d="M25,35.1c0,0-5.3-0.3-3.9,7.9s4.2,8.7,6.2,8.5s2.6-4.1,2-8.6C28.1,34.6,25,35.1,25,35.1z"/>
						<path class="st6" d="M25,35.1c0,0-1.7-0.1-3,1.4c0.5,0.9,1.2,2.9,1.7,7.1c0.4,2.9,0.5,5.5,0.4,7c1.1,1,2.2,1,3.1,0.9
							c2-0.3,2.6-4.1,2-8.6C28.1,34.6,25,35.1,25,35.1z"/>
					</g>
					<g>
						<path class="st10" d="M75.4,35.1c0,0,5.3-0.4,4,7.8s-4.1,8.8-6.1,8.5c-2-0.2-2.7-4-2.1-8.6C72.3,34.7,75.4,35.1,75.4,35.1z"/>
						<path class="st6" d="M75.4,35.1c0,0,1.7-0.1,3,1.3c-0.5,0.9-1.1,2.9-1.6,7.1c-0.4,2.9-0.5,5.5-0.3,7c-1.1,1-2.2,1.1-3.1,0.9
							c-2-0.2-2.7-4-2.1-8.6C72.3,34.7,75.4,35.1,75.4,35.1z"/>
					</g>
				</g>
				<path class="st6" d="M24.7,49.8c0,0,0,9.7,2.3,11.1c2.6,1.6,15.8,1,15.8,1v-1.3c0,0-14.1,0.7-15.4-1.6c-1.1-2.2-1.4-9.2-1.4-9.2
					S24.7,49.8,24.7,49.8z"/>
				<ellipse class="st6" cx="44.4" cy="61" rx="3.5" ry="2.1"/>
			</g>
		</g>
		<g>
			<path class="st11" d="M29.6,88.1c-1.1,2.8-1.7,9.1-3.4,11.5h13c-0.3-0.1-0.5-0.3-0.8-0.4C32.9,96,30.2,92.4,29.6,88.1z"/>
			<path class="st11" d="M70.8,88.1c-0.6,4.4-3.3,7.9-8.8,11.1c-0.3,0.1-0.5,0.3-0.8,0.4h13C72.5,97.1,71.9,90.9,70.8,88.1z"/>
		</g>
		<g>
			<g>
				<polygon class="st12" points="30.9,99.6 30.4,93.3 29.2,99.6 				"/>
				<polygon class="st12" points="71.3,99.6 70.1,93.3 69.5,99.6 				"/>
			</g>
		</g>
	</g>
	
		<radialGradient id="SVGID_1_" cx="50.1739" cy="826.3695" r="42.4585" gradientTransform="matrix(1 0 0 1 0 -773.5024)" gradientUnits="userSpaceOnUse">
		<stop  offset="0" style="stop-color:#FFC9BD"/>
		<stop  offset="0.1536" style="stop-color:#E6B2AD"/>
		<stop  offset="0.5533" style="stop-color:#A87B87"/>
		<stop  offset="0.8466" style="stop-color:#82596F"/>
		<stop  offset="1" style="stop-color:#734C66"/>
	</radialGradient>
	<path class="st13" d="M81.7,75.2c-0.7-0.1-2.4-0.4-4.4-0.8c7.8-1.7,9.8-14.5,2.9-16.6c0,0,1.1,4.5-3.4,4.1c-3.3-0.3-4-4.8-2.9-10.3
		c1.9,0,4.3-1.2,5.5-8.6c0.5-3.1,0-5-0.7-6.1c1.8-6.6,1.9-13.9-4.9-20.9c-5.4-5.5-9.5-6.1-11.8-5.7c-1.3-0.5-2.8-1-4.3-1.3
		c-4.6-2.4-12.5-4.6-22-0.4C21.3,15,20.2,25.3,22.4,36.2c-0.1,0.1-0.2,0.2-0.3,0.3l0,0l0,0c-0.9,1.1-1.5,3-0.9,6.5
		c0.8,5,2.2,7.1,3.6,8c0.1,2.5,0.4,8,2,9.6c-0.5,0.5-1.2,0.9-2.1,1.2c-4.2,1.4-4.1-3.8-3-4.7c0,0-8.4,0.8-4.5,11.2
		c1.3,3.6,4.4,5.3,7.8,5.7c-2.8,0.5-5.2,1-6.1,1.1c-2,0.4-4.8,16-6.2,24.4h13.7h2.9H31h8.3h22.1h8.3h1.7h2.9H88
		C86.6,91.2,83.8,75.5,81.7,75.2z M27.5,59c-0.8-1.5-1.1-5.2-1.3-7.4c0.2,0,0.4,0,0.7,0c0.9,3.1,1.4,5.7,0.7,7.6
		C27.5,59.1,27.5,59,27.5,59z"/>
</g>
</svg>
