<?xml version="1.0" encoding="utf-8"?>
<!-- Generator: Adobe Illustrator 25.0.1, SVG Export Plug-In . SVG Version: 6.00 Build 0)  -->
<svg version="1.1" id="Layer_1" xmlns="http://www.w3.org/2000/svg" xmlns:xlink="http://www.w3.org/1999/xlink" x="0px" y="0px"
	 viewBox="0 0 622.3 873.1" style="enable-background:new 0 0 622.3 873.1;" xml:space="preserve">
<style type="text/css">
	.st0{fill:#1A2235;}
	.st1{opacity:0.75;fill:#8A8C8E;enable-background:new    ;}
	.st2{fill:#DDC8AC;}
	.st3{fill:#B9B1BB;}
	.st4{fill:#8D7F90;}
	.st5{fill:#FFDFD8;}
	.st6{fill:#F2B597;}
	.st7{fill:#EFBA9E;}
	.st8{fill:#E2BEAA;}
	.st9{fill:#E38A61;}
	.st10{fill:none;stroke:#D66B64;stroke-width:4;stroke-miterlimit:10;}
	.st11{fill:none;}
	.st12{fill:#D66B64;}
</style>
<g>
	<g>
		<g>
			<path class="st0" d="M8.7,51.8l48.9,362c1,9,9,15.5,18.1,15.5c36.3-1,128.5-5.3,206.4-19.1c9-1.7,15.5-9.9,14.5-19.1L276.5,26.6
				c-1-9.9-9-18.1-19.1-17.2L24.9,31.2C15,32.9,7.7,41.8,8.7,51.8z"/>
			<path class="st1" d="M283.8,151.4l-6.3-123.9c-1-9.9-9-18.1-19.1-17.2l-144,13.5C149,51.8,263,136,283.8,151.4z"/>
			<path class="st1" d="M16.9,103.3C36,116.8,286.7,297.8,292,299.8l-2.7-48.9c0,0-1,0-1-1C247.7,224.5,27.8,52.7,12.3,39.2
				c-1.7,3.6-2.7,7.3-2.7,11.9L16.9,103.3C16,102.6,16,103.3,16.9,103.3z"/>
			<path class="st1" d="M31.4,214.8l4.6,35.3l246.1,161.1c8.2-1.7,13.5-8.2,14.5-16.2C294.7,392.9,63.9,240,31.4,214.8z"/>
			<path class="st0" d="M32.2,53.7L76.4,383l0,0c0,0,113.2-1.7,195.5-18.1L253.8,32.6l0,0L32.2,53.7z"/>
			<path class="st2" d="M37.7,61L80.3,375l0,0c0,0,107.7-1,186.3-17.2L249.4,42.1l0,0L37.7,61z"/>
			<path class="st3" d="M188,398.5c1,5.3-3.6,9.9-9.9,10.9c-5.3,1-10.9-3.6-11.9-9s3.6-9.9,9.9-10.9
				C182.4,389.3,187,392.9,188,398.5z"/>
			<path class="st4" d="M181.7,401.1c-4.6,0-8.2-2.7-9-6.3c0-1,0-1,0-1.7c-2.7,1.7-4.6,4.6-4.6,7.3c0,3.6,4.6,7.3,9,6.3
				c3.6,0,6.3-2.7,7.3-6.3C184.4,401.1,183.4,401.1,181.7,401.1z"/>
			<polygon class="st3" points="112,32.9 112,41.8 160.9,37.2 159.9,30.2 			"/>
			<path class="st3" d="M178.1,30.9c0,2.7-1.7,4.6-4.6,4.6c-2.9,0-5.3-1.7-5.3-3.6c0-2.7,1.7-4.6,4.6-4.6
				C175.6,27.3,178.1,29.3,178.1,30.9z"/>
		</g>
		<g>
			<path class="st5" d="M467.4,867.1c0,0,137.7-35.3,153.9-53.5c0,0-67-125.8-70.7-164.8c-4.6-39.9-8.2-59.8-11.9-89.5
				s-20.8-114-27.1-137.7c-6.3-23.5-15.5-60.7-24.4-66.1c-14.5-9.9-46.9,4.6-48.9,9c0,0-1.7-40.6-58.8-10.9c0,0-7.3-37-66.1-9
				c0,0-18.1-25.4-32.7-50.6c-16.2-28.1-30.7-56.1-41.6-57.1c-17.2-1.7-35.3,8.2-31.7,29c2.7,13.5,9.9,33.4,22.7,57.1
				c30.7,60.7,66.1,113.2,80.6,149.3c15.5,36.3,46.2,105,23.5,113.2c-35.3,12.6-55.2-12.6-85.9-19.1c-30.7-7.3-74.3-2.7-79.6,17.2
				c-4.6,19.8,68,35.3,80.6,41.6s54.2,57.8,98.7,67c44.3,9,70.7,42.6,76.9,57.1C430.4,763.1,467.4,867.1,467.4,867.1z"/>
			<path class="st6" d="M576.1,801.1c-38,10.9-93.2,19.8-115.9-23.5c-29-55.2-28.1-71.4-89.5-95.1c-23.5-9-45.2-7.3-67-19.1
				c-20.8-11.9-27.1-19.1-49.8-35.3c16.2,12.6,54.2,55.2,94.1,63.4c44.3,9,70.7,42.6,76.9,57.1c5.3,14.5,43.6,118.6,43.6,118.6
				s137.7-35.3,153.9-53.5c0,0-4.6-8.2-10.9-20.8C597.9,795.8,586,798.4,576.1,801.1z"/>
			<path class="st7" d="M333.6,585.7c-35.3,12.6-55.2-12.6-85.9-19.1c-1,0-1.7,0-2.7,0c10.9,4.6,21.8,9.9,35.3,16.2
				s31.7,29,59.8,25.4c12.6-3.6,23.5-11.9,23.5-28.1c0-53.5-33.4-101.4-71.4-143c7.3,13.5,13.5,25.4,18.1,36.3
				C325.4,509.8,356.1,578.5,333.6,585.7z"/>
			<path class="st8" d="M220.4,590.3c-14.5-4.6-36.3,2.7-45.2,6.3c15.5,11.9,50.6,20.8,67,26.1C241.2,611.2,234,594,220.4,590.3z"/>
			<path class="st8" d="M238.6,291.5c6.3-1.7,16.2-5.3,16.2-13.5c0-8.2-3.6-22.7-13.5-39.9c-1,0-1.7-1-2.7-1
				c-13.5-1-27.1,4.6-30.7,17.2C213.1,268.1,226.9,295.2,238.6,291.5z"/>
			<path class="st9" d="M318.2,343.3c0,0,46.9,101.4,45.2,102.3S301,328.1,301,328.1L318.2,343.3z"/>
			<path class="st9" d="M386.1,351.3c0,0,29.8,77.9,27.1,77.9c-3.6,0-38-85.2-38-85.2L386.1,351.3z"/>
			<path class="st9" d="M443,361.2c0,0,18.1,65.1,16.2,63.4c-1.7-1.7-24.4-69.7-24.4-69.7S443,359.5,443,361.2z"/>
		</g>
	</g>
</g>
<path class="st10" d="M76.7,183.4c1.1,0.7,2.9,0.6,4.5,0.6c1.4,0,2.3-0.3,3.7-0.7c1.3-0.4,2.7-0.9,3.7-1.9c0.6-0.6,1-1.5,1.3-2.3
	c0.3-0.7,0.5-1.6,0.3-2.3c-0.3-0.8-1-1.3-1.7-1.7c-2.6-1.4-5.3-2.3-8.2-2.7c-0.4-0.1-1.3,0-1.7-0.2c-0.4-0.3-0.3-1.5-0.3-2
	c-0.1-1.7-0.1-3.4,0-5c0-0.7,0.1-1.4,0.3-2.1c0.2-0.6,0.5-1.2,0.8-1.8c1.1-1.8,2.7-3.3,4.8-3.8s4.4-0.1,5.8,1.4
	c1-0.6,2.2-0.4,3.3-0.5c1-0.1,2.1-0.3,3.1-0.1c0.8,0.2,1.6,0.7,2.3,1.1c1.2,0.8,2.6,1.6,3,3c1.6-0.7,3.4-1.5,5-1
	c0.7,0.2,1.3,0.6,1.9,1c0.5,0.3,1,0.6,1.4,1c0.9,0.8,1.6,1.7,2.2,2.6c0.5-0.1,1.1,0,1.6,0.2c0.8,0.3,1.6,0.7,2.3,1.2
	c1.3,0.8,2.5,1.6,3.6,2.7c1,1.1,1.9,2.4,2,3.9c0.1,1.1-0.1,2.1-0.3,3.1c-1.1,5.2-2.2,10.5-3.6,15.6c-0.3,1-0.6,2.1-1.3,2.9
	c-0.3,0.4-0.7,0.7-1,1.1c-0.4,0.5-0.5,1.2-0.7,1.8c-0.4,1.5-1.4,2.7-2.3,3.9c-0.8,1.1-1.6,2.1-2.4,3.2c-0.3,0.5-0.6,1.2-0.7,1.7
	c-0.1,0.4,0,0.7,0,1.1c0.3,2.6,0.6,5.2,1,7.8"/>
<path class="st10" d="M85.3,218.8c0-0.9,0-1.9,0-2.8c0-3.2-0.1-6.5-1.4-9.4c-0.6-1.4-1.5-2.6-2.4-3.9c-0.9-1.3-3.2-4.5-5.6-7.7
	c-2.5-3.5-5.1-7.1-6.2-8.5c-0.4-0.6,0.8-4.1,1.3-4.9c0.6-1.2,1.2-2.4,1.9-3.6c0.5-0.9,0.9-1.8,1.5-2.7c0.6-0.9,1.3-1.6,2-2.3
	c0.3-0.2,0.8-0.5,1.1-0.6c0.4-0.1,0.8-0.2,1.1,0.1"/>
<path class="st10" d="M89.7,161.5c-0.3,0.6-0.6,1.2-0.9,1.8c-0.3,0.5-0.6,1.1-0.8,1.6c-0.3,1.1-0.4,2.2-0.4,3.3c0,2.2,0,4.4,0,6.6"
	/>
<path class="st10" d="M100.3,165.6c-1.1,0.9-1.7,2.2-2.2,3.5c-0.7,1.9-0.9,4-1.2,6c-0.4,2.8-0.7,5.6-1.1,8.5"/>
<path class="st10" d="M110.3,169.6c-2.5,2.8-3.4,6.6-4.3,10.2c-0.4,1.6-0.7,3.1-1,4.7c-0.2,1.2-0.2,2.6-1.7,2.7
	c-1.7,0.1-3.5,0.2-5-0.8c-1.1-0.7-1.7-1.8-2.4-2.9c-0.5,0.8-0.6,1.4-1.5,1.4c-0.4,0-1.7,0-2.1-0.1c-0.5,0-0.8,0-1.5-0.1
	c-0.3,0-1.2-0.4-1.4-0.6c-0.6-0.5-1-1.2-1.7-1.6c0-0.1,0-0.2-0.1-0.3"/>
<path class="st10" d="M82.5,163.8c0.9-0.4,1.9-0.2,2.7,0.4"/>
<path class="st10" d="M91.4,165.6c0.5-0.3,1.2-0.2,1.8,0c0.6,0.2,1.1,0.5,1.7,0.6"/>
<path class="st10" d="M102.1,169.1c1.3,0.2,2.5,0.7,3.6,1.3"/>
<path class="st10" d="M111.6,173.2c0.8,0.2,1.6,0.6,2.2,1.2"/>
<path class="st10" d="M96.6,189.7c0.2,3-0.5,6.1-1.6,8.7"/>
<path class="st10" d="M100.4,190.2c-0.7,1.3-1.1,2.6-1.3,4c0,0.5-0.1,0.9-0.1,1.4c0,0.5,0,1-0.1,1.4c-0.1,0.8,0,1.7,0.3,2.4"/>
<path class="st10" d="M94.3,204.1c-0.9,0.3-1.9,0.6-2.9,0.7c-1.1,0.1-2.3-0.2-3.3-0.7"/>
<path class="st10" d="M99.8,205.7c1.6,0.8,3.3,1.7,5.2,1.6c0.7,0,1.4-0.2,2.1,0"/>
<path class="st10" d="M105,185.7c0,1,0.7,1.9,1.5,2.4s1.9,0.6,2.8,0.5c0.6-0.1,1.3-0.2,1.7-0.6c0.3-0.3,0.6-0.7,0.8-1.1
	c0.8-1.5,1.6-2.9,2.4-4.4c0.5-0.8,1-2.2,1.7-2.8c0.7-0.6,1.4-0.1,2.2-0.2"/>
<path class="st0" d="M157.2,161.7l-7.7,26c-2.1,7.1-3.9,13.5-5.2,19.7l-0.2,0c-1.8-6-4.3-12.5-7-19.2l-10.2-25.4l-7.6,0.3l21.5,51.4
	l3.5-0.1l15.8-52.8L157.2,161.7z"/>
<path class="st11" d="M164.6,167.3l-0.2,0c-0.6,3.1-1.4,6.4-2.3,9.6l-4.6,15.4l16.6-0.9l-6.2-14.7
	C166.6,173.3,165.6,170.3,164.6,167.3z"/>
<path class="st0" d="M228.5,156.8l-5.3,26.9c-1.2,6.6-2.4,12.6-3.1,18.4l-0.2,0c-1.2-5.4-3.1-11.5-5.1-17.6l-8.6-26.1l-7.4,0.5
	l-5.4,26.9c-1.4,6.9-2.6,13.2-3.2,18.5l-0.2,0c-1.3-5-3.3-11.4-5.4-17.8l-8.4-26l-7.5,0.5l21.5,51l3.6-0.3l5.8-27.8
	c1.5-6.9,2.4-12.1,3-17.4l0.2,0c1.1,5.2,2.6,10.3,4.8,16.8l8.9,26.7l7.4-0.5l11.7-53.4L228.5,156.8z"/>
<path class="st0" d="M168.7,161.2L168.7,161.2L168.7,161.2l-3.6,0.1c-0.1,0.1-0.2,0.2-0.3,0.2l-16.1,52.7l-0.1,0
	c0,0.1,0,0.1,0.1,0.2l2.8-0.1l4.8-16.7l19.5-1.1l6.8,16.1l3.8-0.2L168.7,161.2z M157.6,192.3l4.6-15.4c0.9-3.2,1.6-6.4,2.3-9.6
	l0.2,0c1,3,2,6,3.4,9.4l6.2,14.7L157.6,192.3z"/>
<polygon class="st12" points="172.6,171.5 186.7,212.2 187.7,212.1 189.7,211.9 172.6,171.5 "/>
<polygon class="st12" points="163.3,165.4 159.3,165.5 145.9,210.4 149.6,210.3 "/>
<path class="st10" d="M99,195.6"/>
</svg>
