<?xml version="1.0" encoding="utf-8"?>
<!-- Generator: Adobe Illustrator 25.0.1, SVG Export Plug-In . SVG Version: 6.00 Build 0)  -->
<svg version="1.1" id="Layer_1" xmlns="http://www.w3.org/2000/svg" xmlns:xlink="http://www.w3.org/1999/xlink" x="0px" y="0px"
	 viewBox="0 0 66.9 82" style="enable-background:new 0 0 66.9 82;" xml:space="preserve">
<style type="text/css">
	.st0{fill:#D66B64;}
	.st1{fill:#505050;}
	.st2{fill:#FFFFFF;}
</style>
<g>
	<g>
		<g>
			<path class="st0" d="M29.8,55.5v1.8c4.4-0.1,8-3.7,8.1-8.1h-1.8C36.1,52.7,33.3,55.4,29.8,55.5z"/>
		</g>
		<g>
			<path class="st0" d="M29.8,61.2V63c7.6-0.1,13.7-6.2,13.8-13.8h-1.8C41.8,55.8,36.4,61.1,29.8,61.2z"/>
		</g>
		<g>
			<path class="st0" d="M29.8,66.8v1.8c10.7-0.1,19.4-8.7,19.4-19.4h-1.8C47.4,58.9,39.5,66.8,29.8,66.8z"/>
		</g>
	</g>
	<g>
		<path class="st1" d="M21.9,37.1H10.7v-8.2c0-1.4-1.2-2.6-2.6-2.6H7.5c-1.4,0-2.6,1.2-2.6,2.6v8.5c-1.7,0.8-3,2.8-3,5.1v30.6
			c0,3,2.1,5.5,4.6,5.5H22c2.5,0,4.6-2.4,4.6-5.5V42.5C26.5,39.5,24.5,37.1,21.9,37.1z"/>
		<rect x="5.9" y="59" class="st2" width="4" height="3.5"/>
		<rect x="12.2" y="59" class="st2" width="4" height="3.5"/>
		<rect x="18.6" y="59" class="st2" width="4" height="3.5"/>
		<rect x="5.9" y="64.1" class="st2" width="4" height="3.5"/>
		<rect x="12.2" y="64.1" class="st2" width="4" height="3.5"/>
		<rect x="18.6" y="64.1" class="st2" width="4" height="3.5"/>
		<rect x="5.9" y="69.3" class="st2" width="4" height="3.5"/>
		<rect x="12.2" y="69.3" class="st2" width="4" height="3.5"/>
		<rect x="18.6" y="69.3" class="st2" width="4" height="3.5"/>
		<rect x="5.9" y="42.8" class="st0" width="16.7" height="12"/>
	</g>
	<g>
		<path class="st0" d="M58.8,8.1H31.3c-3.5,0-6.3,2.8-6.3,6.3V32c0,3.4,2.8,6.2,6.2,6.2h0.1l-1.8,9.2l8.8-9.2h20.5
			c3.5,0,6.3-2.8,6.3-6.3V14.4C65.1,10.9,62.3,8.1,58.8,8.1z"/>
		<g>
			<path class="st2" d="M42.7,17.3V15c0-0.5,0.4-0.9,0.8-0.9H47c0.4,0,0.8,0.4,0.8,0.9v2.4c0,0.5-0.4,0.9-0.8,0.9h-3.5
				C43.1,18.2,42.7,17.8,42.7,17.3z M42.7,31.8V21.6c0-0.5,0.4-0.9,0.8-0.9H47c0.4,0,0.8,0.4,0.8,0.9v10.2c0,0.5-0.4,0.9-0.8,0.9
				h-3.5C43.1,32.7,42.7,32.3,42.7,31.8z"/>
		</g>
	</g>
</g>
</svg>
