<?xml version="1.0" encoding="utf-8"?>
<!-- Generator: Adobe Illustrator 25.0.1, SVG Export Plug-In . SVG Version: 6.00 Build 0)  -->
<svg version="1.1" id="Layer_1" xmlns="http://www.w3.org/2000/svg" xmlns:xlink="http://www.w3.org/1999/xlink" x="0px" y="0px"
	 viewBox="0 0 339 403" style="enable-background:new 0 0 339 403;" xml:space="preserve">
<style type="text/css">
	.st0{fill:none;stroke:#D66B64;stroke-width:14;stroke-miterlimit:10;}
</style>
<path class="st0" d="M56.2,165.6c6.1,4.9,16.7,5.3,25.9,5.9c8.2,0.6,13.8-0.4,21.8-2.2c8-1.7,16.5-3.7,22.6-9.2
	c3.9-3.5,6.5-8.1,8.8-12.8c2.1-4.2,4-8.9,2.8-13.5c-1.2-4.7-5.4-7.9-9.4-10.6c-14.3-9.4-30.2-16.2-46.9-20.1
	c-2.2-0.5-7.9-0.5-9.6-2.1c-2.2-2.2-0.9-8.9-0.8-11.9c0.3-9.9,1.2-19.8,2.8-29.6c0.6-4,1.4-8,2.8-11.9c1.3-3.6,3.3-6.9,5.5-10
	c7.2-10,17.8-17.9,29.9-20.1s25.6,1.8,33.3,11.4c5.9-2.8,13.1-1.1,19.6-1.5c6.1-0.3,12.4-0.7,18.2,1.3c4.8,1.6,9,4.8,13.1,7.8
	c6.9,5.2,14.2,11,16.3,19.3c9.5-3.5,20.5-6.9,30-3.2c4,1.5,7.4,4.2,10.7,6.9c2.7,2.1,5.4,4.3,7.8,6.7c4.8,4.9,8.3,10.9,11.8,16.7
	c3.2-0.1,6.5,0.7,9.5,1.9c4.8,2,9,5.2,13.1,8.4c7,5.4,14,10.8,19.6,17.6s9.8,15.1,10,23.9c0.1,6.3-1.7,12.4-3.5,18.3
	c-9.2,30.2-18.4,60.3-29.5,89.9c-2.2,5.9-4.6,12-9.2,16.4c-2.1,2-4.6,3.7-6.4,5.9c-2.4,3-3.4,6.9-4.9,10.5
	c-3.4,8.4-9.5,15.3-15.5,22c-5.2,5.9-10.5,11.8-15.7,17.7c-2.2,2.5-4.4,6.5-5.2,9.7c-0.6,2.1-0.5,4.3-0.5,6.5c0.4,15.5,1,31,2,46.5"
	/>
<path class="st0" d="M88.5,377.7c0.4-5.5,0.9-11,1.3-16.5c1.5-18.7,2.9-38.1-3.3-55.8c-3-8.5-7.7-16.3-12.3-24
	c-4.8-7.9-16.7-27.9-28.9-48.4c-13.1-21.8-26.5-44.1-32.2-53c-2.3-3.5,7-23.5,10.1-28.3c4.2-6.7,8.5-13.3,12.8-20
	c3.2-5.1,6.5-10.2,10.3-14.9c3.9-4.7,8.3-8.8,13.2-12.4c1.7-1.2,4.8-2.4,6.9-2.8c2.2-0.4,4.8-0.7,6.4,0.9"/>
<path class="st0" d="M143.9,43.6c-2.2,3.4-4.3,6.7-6.5,10.1c-1.9,3-3.9,6-5.3,9.2c-2.6,6.1-3.2,12.7-3.8,19.3
	c-1.2,12.9-2.4,25.9-3.6,38.8"/>
<path class="st0" d="M204.1,73.2c-6.7,5-11.4,12.1-14.8,19.7c-5,11-7.6,22.9-10.2,34.7c-3.6,16.4-7.2,32.7-10.7,49.1"/>
<path class="st0" d="M260.6,101.5c-16.2,14.9-23.6,36.8-30.4,57.7c-2.9,9-6,18-8.2,27.1c-1.7,7-2.4,15.3-11.5,15.2
	c-10-0.1-20.8-0.8-28.7-7c-5.9-4.6-9.3-11.6-12.5-18.4c-3.1,4.2-4.1,8.1-9.3,7.3c-2.3-0.3-10-1-12.2-1.4c-2.7-0.5-4.6-0.7-8.8-1.6
	c-1.7-0.3-6.8-2.8-8-4c-3.5-3.4-5.5-7.3-9-10.2c-0.1-0.6-0.1-1.2-0.2-1.7"/>
<path class="st0" d="M100.3,53.1c5.4-1.6,11.5-0.1,15.5,3.8"/>
<path class="st0" d="M151.8,68.4c3.3-1.3,7-0.4,10.3,1.1c3.2,1.4,6.2,3.4,9.6,4.5"/>
<path class="st0" d="M212.5,94.8c7.3,2,14.4,5.2,20.7,9.4"/>
<path class="st0" d="M266.5,123.3c4.8,1.4,9.1,4.3,12.1,8.3"/>
<path class="st0" d="M169.8,212.5c-0.2,17.5-6.2,35.5-14,50.1"/>
<path class="st0" d="M192.1,217.5c-4.6,7.3-8,14.7-9.5,23.1c-0.5,2.9-1,5.2-1.5,7.9s-0.6,5.6-1.1,8.3c-1,4.8-0.8,9.8,0.5,14.5"/>
<path class="st0" d="M148.6,296c-5.7,1.3-11.4,2.6-17.3,2.5c-6.6-0.1-13.2-2.1-18.8-5.6"/>
<path class="st0" d="M180.6,308.2c9.1,5.7,18.7,11.6,29.5,12c4.2,0.1,8.6-0.6,12.4,1.2"/>
<path class="st0" d="M220.9,193.8c-0.4,5.7,2.9,11.3,7.6,14.6c4.7,3.3,10.6,4.5,16.3,4.5c3.6,0,7.5-0.5,10.4-2.7
	c2.2-1.6,3.8-4,5.3-6.3c5.4-8.2,10.8-16.4,16.2-24.6c3.1-4.7,6.8-12.5,11.6-15.7c4.5-3,8,0.2,13,0"/>
<path class="st0" d="M181.1,248.5"/>
</svg>
