<?xml version="1.0" encoding="utf-8"?>
<!-- Generator: Adobe Illustrator 25.0.0, SVG Export Plug-In . SVG Version: 6.00 Build 0)  -->
<svg version="1.1" id="Layer_1" xmlns="http://www.w3.org/2000/svg" xmlns:xlink="http://www.w3.org/1999/xlink" x="0px" y="0px"
	 viewBox="0 0 1059.4 428.1" style="enable-background:new 0 0 1059.4 428.1;" xml:space="preserve">
<style type="text/css">
	.st0{fill:#1A2235;}
	.st1{fill:none;}
	.st2{fill:#F15A29;}
	.st3{fill:#D66B64;}
	.st4{fill:none;stroke:#C16E6E;stroke-width:59;stroke-miterlimit:10;}
</style>
<path class="st0" d="M578,51.5l-58.5,148.7c-16.1,40.7-30.1,77.5-40.7,113h-1c-7.3-36-18.7-75.5-31.1-116.3L399.9,42.2l-44.8-2.3
	L455,353.2l20.4,1.1l120-301.8L578,51.5z"/>
<path class="st1" d="M618.9,88.2h-1c-5.4,18.1-11.4,36.6-18.3,55.1l-34.8,87.9l97.8,3.3l-28.8-89.6
	C627.3,124.6,623.1,106.2,618.9,88.2z"/>
<polygon class="st2" points="723.9,364.6 731.7,364.7 723.9,364.4 "/>
<path class="st0" d="M999.8,59.5l-45.2,155.3c-10.7,38.4-20.3,72.6-27.6,106.5h-1c-4.3-32.6-12.5-69.4-21.1-106.3L867.7,57.5
	l-43.8-0.6l-45.7,155.3c-11.7,39.7-22.3,76.3-28.1,106.9h-1c-5.3-29.9-13.5-68.5-22.5-107.2L690.4,55l-44.2-0.7l100.2,310.6
	l21.4,0.3l48.6-160.3c12.6-39.7,20.3-69.9,26.5-100.5h1c3.9,31.2,10.2,61.6,19.7,101.2l38.6,161.6l43.8,0.6l96.6-307.7L999.8,59.5z"
	/>
<path class="st0" d="M646.1,54.3L646.1,54.3V54l-21.4-0.7c-0.4,0.4-1,0.8-1.6,1L501.3,355.5H501c0.2,0.4,0.2,0.9,0.3,1.4l16.8,0.6
	l37-95.6l115.2,3.9l31.4,97.9l22.2,0.8L646.1,54.3z M564.8,231.2l34.8-87.9c6.9-18.5,12.8-37,18.3-55.1h1c4.2,18,8.4,36.4,15,56.7
	l28.8,89.6L564.8,231.2z"/>
<polygon class="st2" points="746.5,365.2 746.4,364.9 731.7,364.7 "/>
<polygon class="st3" points="663.6,116.9 725.4,363 731.6,363.2 743.2,363.4 663.7,116.9 "/>
<polygon class="st3" points="612.2,76.2 588.5,75 486.5,331.7 508.4,332.9 "/>
<circle class="st4" cx="188.6" cy="195.6" r="153.8"/>
<path class="st4" d="M25.5,136l291.7,126L25.5,136z"/>
</svg>
