<?xml version="1.0" encoding="utf-8"?>
<!-- Generator: Adobe Illustrator 25.0.0, SVG Export Plug-In . SVG Version: 6.00 Build 0)  -->
<svg version="1.1" id="Layer_1" xmlns="http://www.w3.org/2000/svg" xmlns:xlink="http://www.w3.org/1999/xlink" x="0px" y="0px"
	 viewBox="0 0 1010 403" style="enable-background:new 0 0 1010 403;" xml:space="preserve">
<style type="text/css">
	.st0{fill:none;stroke:#D66B64;stroke-width:14;stroke-miterlimit:10;}
	.st1{fill:#1A2235;}
	.st2{fill:none;}
	.st3{fill:#D66B64;}
</style>
<image style="display:none;overflow:visible;enable-background:new    ;" width="1280" height="720" xlink:href="../../../../Desktop/hand.jpg"  transform="matrix(1 0 0 1 -243.45 -173.05)">
</image>
<path class="st0" d="M56.2,165.6c6.1,4.9,16.7,5.3,25.9,5.9c8.2,0.6,13.8-0.4,21.8-2.2c8-1.7,16.5-3.7,22.6-9.2
	c3.9-3.5,6.5-8.1,8.8-12.8c2.1-4.2,4-8.9,2.8-13.5c-1.2-4.7-5.4-7.9-9.4-10.6c-14.3-9.4-30.2-16.2-46.9-20.1
	c-2.2-0.5-7.9-0.5-9.6-2.1c-2.2-2.2-0.9-8.9-0.8-11.9c0.3-9.9,1.2-19.8,2.8-29.6c0.6-4,1.4-8,2.8-11.9c1.3-3.6,3.3-6.9,5.5-10
	c7.2-10,17.8-17.9,29.9-20.1c12.1-2.2,25.6,1.8,33.3,11.4c5.9-2.8,13.1-1.1,19.6-1.5c6.1-0.3,12.4-0.7,18.2,1.3
	c4.8,1.6,9,4.8,13.1,7.8c6.9,5.2,14.2,11,16.3,19.3c9.5-3.5,20.5-6.9,30-3.2c4,1.5,7.4,4.2,10.7,6.9c2.7,2.1,5.4,4.3,7.8,6.7
	c4.8,4.9,8.3,10.9,11.8,16.7c3.2-0.1,6.5,0.7,9.5,1.9c4.8,2,9,5.2,13.1,8.4c7,5.4,14,10.8,19.6,17.6s9.8,15.1,10,23.9
	c0.1,6.3-1.7,12.4-3.5,18.3c-9.2,30.2-18.4,60.3-29.5,89.9c-2.2,5.9-4.6,12-9.2,16.4c-2.1,2-4.6,3.7-6.4,5.9
	c-2.4,3-3.4,6.9-4.9,10.5c-3.4,8.4-9.5,15.3-15.5,22c-5.2,5.9-10.5,11.8-15.7,17.7c-2.2,2.5-4.4,6.5-5.2,9.7
	c-0.6,2.1-0.5,4.3-0.5,6.5c0.4,15.5,1,31,2,46.5"/>
<path class="st0" d="M88.5,377.7c0.4-5.5,0.9-11,1.3-16.5c1.5-18.7,2.9-38.1-3.3-55.8c-3-8.5-7.7-16.3-12.3-24
	c-4.8-7.9-16.7-27.9-28.9-48.4c-13.1-21.8-26.5-44.1-32.2-53c-2.3-3.5,7-23.5,10.1-28.3c4.2-6.7,8.5-13.3,12.8-20
	c3.2-5.1,6.5-10.2,10.3-14.9c3.9-4.7,8.3-8.8,13.2-12.4c1.7-1.2,4.8-2.4,6.9-2.8c2.2-0.4,4.8-0.7,6.4,0.9"/>
<path class="st0" d="M143.9,43.6c-2.2,3.4-4.3,6.7-6.5,10.1c-1.9,3-3.9,6-5.3,9.2c-2.6,6.1-3.2,12.7-3.8,19.3
	c-1.2,12.9-2.4,25.9-3.6,38.8"/>
<path class="st0" d="M204.1,73.2c-6.7,5-11.4,12.1-14.8,19.7c-5,11-7.6,22.9-10.2,34.7c-3.6,16.4-7.2,32.7-10.7,49.1"/>
<path class="st0" d="M260.6,101.5c-16.2,14.9-23.6,36.8-30.4,57.7c-2.9,9-6,18-8.2,27.1c-1.7,7-2.4,15.3-11.5,15.2
	c-10-0.1-20.8-0.8-28.7-7c-5.9-4.6-9.3-11.6-12.5-18.4c-3.1,4.2-4.1,8.1-9.3,7.3c-2.3-0.3-10-1-12.2-1.4c-2.7-0.5-4.6-0.7-8.8-1.6
	c-1.7-0.3-6.8-2.8-8-4c-3.5-3.4-5.5-7.3-9-10.2c-0.1-0.6-0.1-1.2-0.2-1.7"/>
<path class="st0" d="M100.3,53.1c5.4-1.6,11.5-0.1,15.5,3.8"/>
<path class="st0" d="M151.8,68.4c3.3-1.3,7-0.4,10.3,1.1c3.2,1.4,6.2,3.4,9.6,4.5"/>
<path class="st0" d="M212.5,94.8c7.3,2,14.4,5.2,20.7,9.4"/>
<path class="st0" d="M266.5,123.3c4.8,1.4,9.1,4.3,12.1,8.3"/>
<path class="st0" d="M169.8,212.5c-0.2,17.5-6.2,35.5-14,50.1"/>
<path class="st0" d="M192.1,217.5c-4.6,7.3-8,14.7-9.5,23.1c-0.5,2.9-1,5.2-1.5,7.9c-0.5,2.7-0.6,5.6-1.1,8.3
	c-1,4.8-0.8,9.8,0.5,14.5"/>
<path class="st0" d="M148.6,296c-5.7,1.3-11.4,2.6-17.3,2.5c-6.6-0.1-13.2-2.1-18.8-5.6"/>
<path class="st0" d="M180.6,308.2c9.1,5.7,18.7,11.6,29.5,12c4.2,0.1,8.6-0.6,12.4,1.2"/>
<path class="st0" d="M220.9,193.8c-0.4,5.7,2.9,11.3,7.6,14.6c4.7,3.3,10.6,4.5,16.3,4.5c3.6,0,7.5-0.5,10.4-2.7
	c2.2-1.6,3.8-4,5.3-6.3c5.4-8.2,10.8-16.4,16.2-24.6c3.1-4.7,6.8-12.5,11.6-15.7c4.5-3,8,0.2,13,0"/>
<path class="st1" d="M539.9,79.7l-58.5,148.7c-16.1,40.7-30.1,77.5-40.7,113h-1c-7.3-36-18.7-75.5-31.1-116.3L361.8,70.4L317,68.1
	l99.9,313.3l20.4,1.1l120-301.8L539.9,79.7z"/>
<path class="st2" d="M580.8,116.4h-1c-5.4,18.1-11.4,36.6-18.3,55.1l-34.8,87.9l97.8,3.3l-28.8-89.6
	C589.2,152.8,585,134.4,580.8,116.4z"/>
<path class="st1" d="M961.7,87.7L916.5,243c-10.7,38.4-20.3,72.6-27.6,106.5h-1c-4.3-32.6-12.5-69.4-21.1-106.3L829.6,85.7
	l-43.8-0.6l-45.7,155.3c-11.7,39.7-22.3,76.3-28.1,106.9h-1c-5.3-29.9-13.5-68.5-22.5-107.2L652.3,83.2l-44.2-0.7l100.2,310.6
	l21.4,0.3l48.6-160.3c12.6-39.7,20.3-69.9,26.5-100.5h1c3.9,31.2,10.2,61.6,19.7,101.2l38.6,161.6l43.8,0.6l96.6-307.7L961.7,87.7z"
	/>
<path class="st1" d="M608,82.5L608,82.5v-0.3l-21.4-0.7c-0.4,0.4-1,0.8-1.6,1L463.2,383.7h-0.3c0.2,0.4,0.2,0.9,0.3,1.4l16.8,0.6
	l37-95.6l115.2,3.9l31.4,97.9l22.2,0.8L608,82.5z M526.7,259.4l34.8-87.9c6.9-18.5,12.8-37,18.3-55.1h1c4.2,18,8.4,36.4,15,56.7
	l28.8,89.6L526.7,259.4z"/>
<polygon class="st3" points="625.5,145.1 687.3,391.2 693.5,391.4 705.1,391.5 625.6,145.1 "/>
<polygon class="st3" points="574.1,104.4 550.4,103.2 448.4,359.9 470.3,361 "/>
<path class="st0" d="M181.1,248.5"/>
</svg>
