<?xml version="1.0" encoding="utf-8"?>
<!-- Generator: Adobe Illustrator 25.0.1, SVG Export Plug-In . SVG Version: 6.00 Build 0)  -->
<svg version="1.1" id="Layer_1" xmlns="http://www.w3.org/2000/svg" xmlns:xlink="http://www.w3.org/1999/xlink" x="0px" y="0px"
	 viewBox="0 0 179 183" style="enable-background:new 0 0 179 183;" xml:space="preserve">
<style type="text/css">
	.st0{fill:#D66B64;}
	.st1{fill:#FFFFFF;}
</style>
<g id="Object">
	<g>
		<circle class="st0" cx="92.9" cy="91" r="86.1"/>
		<g>
			<path class="st1" d="M123.1,113c-4.9,0-9,2.5-11.6,6.4L62.1,94.8c0.5-1.4,0.7-2.9,0.7-4.4c0-1.6-0.2-3.1-0.7-4.6l49.5-25.3
				c2.5,3.7,6.7,6.2,11.4,6.2c7.7,0,14-6.4,14-14.2s-6.2-14.2-14-14.2c-7.6,0-14,6.4-14,14.2c0,1.6,0.2,3.1,0.7,4.6L60.4,82.3
				c-2.5-3.8-6.7-6.2-11.4-6.2c-7.6,0-14,6.4-14,14.2s6.2,14.2,14,14.2c4.9,0,9-2.5,11.6-6.4l49.4,24.6c-0.5,1.4-0.7,2.9-0.7,4.4
				c0,7.9,6.2,14.2,14,14.2s14-6.4,14-14.2C137,119.4,130.7,113,123.1,113z M112.9,52.4c0-5.7,4.5-10.3,10.2-10.3
				c5.5,0,10.2,4.6,10.2,10.3s-4.5,10.3-10.2,10.3C117.5,62.8,112.9,58,112.9,52.4z M59,90.3c0,5.7-4.5,10.3-10.2,10.3
				c-5.5,0-10.2-4.6-10.2-10.3c0-5.7,4.5-10.3,10.2-10.3S59,84.6,59,90.3z M113.9,122.7L113.9,122.7L113.9,122.7
				c1.7-3.5,5.1-5.9,9.1-5.9c5.5,0,10.2,4.6,10.2,10.3s-4.5,10.3-10.2,10.3c-5.5,0-10.2-4.6-10.2-10.3
				C112.9,125.6,113.3,124.1,113.9,122.7z"/>
		</g>
	</g>
</g>
</svg>
